<?xml version="1.0" standalone="no"?>
<!DOCTYPE svg PUBLIC "-//W3C//DTD SVG 20010904//EN"
 "http://www.w3.org/TR/2001/REC-SVG-20010904/DTD/svg10.dtd">
<svg version="1.0" xmlns="http://www.w3.org/2000/svg"
 width="512.000000pt" height="512.000000pt" viewBox="0 0 512.000000 512.000000"
 preserveAspectRatio="xMidYMid meet">
<metadata>
Created by potrace 1.11, written by Peter Selinger 2001-2013
</metadata>
<g transform="translate(0.000000,512.000000) scale(0.100000,-0.100000)"
fill="#000000" stroke="none">
<path d="M3490 4988 c0 -5 -11 -6 -25 -4 -23 4 -79 -49 -461 -430 -240 -239
-439 -434 -444 -434 -5 0 -199 191 -432 424 -234 233 -433 428 -444 434 -11 6
-43 9 -72 8 -60 -4 -104 -36 -122 -90 -12 -37 -6 -109 9 -114 6 -2 11 -8 11
-12 0 -5 173 -183 385 -395 212 -212 385 -387 385 -388 0 -2 -365 -3 -811 -3
-446 1 -813 -1 -816 -4 -2 -3 -14 -6 -26 -7 -47 -3 -112 -23 -197 -61 -50 -22
-131 -84 -160 -122 -14 -17 -29 -37 -35 -43 -14 -17 -66 -117 -60 -117 2 0 0
-11 -5 -25 -5 -14 -13 -38 -16 -53 -10 -42 -12 -2912 -2 -2912 5 0 6 -5 2 -11
-6 -11 5 -59 30 -124 6 -16 11 -32 11 -35 0 -3 6 -15 13 -26 6 -12 8 -24 5
-28 -3 -3 -1 -6 5 -6 7 0 12 -7 12 -15 0 -8 5 -15 10 -15 6 0 10 -4 10 -10 0
-10 16 -31 55 -73 29 -32 107 -87 122 -87 7 0 13 -4 13 -9 0 -5 12 -12 27 -16
16 -5 33 -10 38 -12 87 -29 133 -30 2075 -28 1070 1 1954 5 1965 8 11 3 22 6
25 7 3 1 10 3 15 5 6 1 13 3 18 5 4 1 10 3 15 5 51 14 62 19 62 28 0 6 3 7 6
4 4 -4 30 10 57 30 57 42 117 99 111 106 -2 2 5 12 16 22 11 10 20 24 20 32 0
7 4 13 10 13 5 0 9 3 8 8 -1 7 12 44 31 87 11 24 23 68 29 110 6 39 8 2869 2
2915 -2 19 -6 40 -9 45 -3 6 -6 15 -7 22 -13 87 -94 201 -194 275 -62 45 -186
93 -275 105 -22 3 -401 6 -842 6 -442 0 -803 2 -803 3 0 2 178 181 395 399
217 218 396 403 397 413 0 9 2 22 2 29 1 6 4 15 8 19 18 17 -49 124 -79 124
-7 0 -13 4 -13 9 0 5 -13 11 -30 13 -16 3 -30 1 -30 -4z"/>
</g>
</svg>
